<?xml version="1.0" encoding="iso-8859-1"?>
<!-- Generator: Adobe Illustrator 16.0.0, SVG Export Plug-In . SVG Version: 6.00 Build 0)  -->
<!DOCTYPE svg PUBLIC "-//W3C//DTD SVG 1.1//EN" "http://www.w3.org/Graphics/SVG/1.1/DTD/svg11.dtd">
<svg version="1.1" id="Capa_1" xmlns="http://www.w3.org/2000/svg" xmlns:xlink="http://www.w3.org/1999/xlink" x="0px" y="0px"
	 width="45.566px" height="45.566px" viewBox="0 0 45.566 45.566" style="enable-background:new 0 0 45.566 45.566;"
	 xml:space="preserve">
<g>
	<g>
		<path d="M22.783,0C16.158,0,10.77,5.389,10.77,12.013c0,6.625,5.388,12.014,12.013,12.014s12.014-5.389,12.014-12.014
			C34.797,5.389,29.408,0,22.783,0z M27.65,13.67h-3.21v3.21c0,0.916-0.741,1.657-1.657,1.657s-1.657-0.741-1.657-1.657v-3.21h-3.21
			c-0.916,0-1.657-0.741-1.657-1.657s0.741-1.656,1.657-1.656h3.21V7.146c0-0.916,0.741-1.656,1.657-1.656s1.657,0.74,1.657,1.656
			v3.211h3.21c0.916,0,1.656,0.74,1.656,1.656S28.566,13.67,27.65,13.67z"/>
		<path d="M38.006,18.421c-0.553,0-1,0.447-1,1v1.948h-1.949c-0.553,0-1,0.447-1,1s0.447,1,1,1h1.949v1.951c0,0.553,0.447,1,1,1
			s1-0.447,1-1v-1.951h1.95c0.554,0,1-0.447,1-1s-0.446-1-1-1h-1.95v-1.948C39.006,18.869,38.559,18.421,38.006,18.421z"/>
		<path d="M8.596,18.159c-0.553,0-1,0.447-1,1v3.253H4.344c-0.553,0-1,0.447-1,1c0,0.553,0.447,1,1,1h3.252v3.252
			c0,0.553,0.447,1,1,1s1-0.447,1-1v-3.252h3.252c0.553,0,1-0.447,1-1c0-0.553-0.447-1-1-1H9.596v-3.253
			C9.596,18.606,9.148,18.159,8.596,18.159z"/>
		<path d="M8.526,45.566h8.284c0.553,0,1-0.446,1-1c0-0.553-0.447-1-1-1H8.526c-2.381,0-4.317-1.936-4.317-4.316
			c0-2.38,1.937-4.316,4.317-4.316h11.599c2.38,0,4.316,1.937,4.316,4.316c0,0.553,0.447,1,1,1s1-0.447,1-1
			c0-3.482-2.834-6.316-6.316-6.316H8.526c-3.483,0-6.317,2.834-6.317,6.316S5.043,45.566,8.526,45.566z"/>
		<path d="M43.357,39.249c0-3.483-2.834-6.317-6.317-6.317h-8.284c-0.553,0-1,0.447-1,1c0,0.554,0.447,1,1,1h8.284
			c2.382,0,4.317,1.938,4.317,4.317s-1.938,4.317-4.317,4.317H25.441c-2.38,0-4.316-1.938-4.316-4.317c0-0.553-0.447-1-1-1
			c-0.553,0-1,0.447-1,1c0,3.483,2.834,6.317,6.316,6.317H37.04C40.523,45.566,43.357,42.732,43.357,39.249z"/>
	</g>
</g>
<g>
</g>
<g>
</g>
<g>
</g>
<g>
</g>
<g>
</g>
<g>
</g>
<g>
</g>
<g>
</g>
<g>
</g>
<g>
</g>
<g>
</g>
<g>
</g>
<g>
</g>
<g>
</g>
<g>
</g>
</svg>
